<svg xmlns="http://www.w3.org/2000/svg" viewBox="0 0 33 28"><path d="M14.957 6.9h3.085v1.772h-3.085z" fill="#f9fbfd" stroke="#1c1c19" stroke-width=".105" stroke-linecap="square" stroke-linejoin="round" stroke-miterlimit="10"/><path d="M5.904 7.613h21.192v17.97H5.904z" fill="#f9fbfd"/><path d="M27.096 25.583V7.613" fill="none" stroke="#1c1c19" stroke-width=".105" stroke-linecap="round" stroke-linejoin="round" stroke-miterlimit="10"/><path d="M10.41 17.168c0 3.374 2.727 6.11 6.093 6.11s6.093-2.736 6.093-6.11-2.727-6.108-6.093-6.108-6.093 2.734-6.093 6.108" fill="#f9fbfd" stroke="#1c1c19" stroke-width=".105" stroke-linecap="round" stroke-linejoin="round" stroke-miterlimit="9.857"/><path d="M19.707 12.703l.01-.038.01-.01-.03-.102-.046-.046M15.228 16.359a10.933 10.933 0 00-3.783-1.335M11.44 15.029h-.075l-.02.018h-.017l-.047.046-.009.02-.009.009v.01M13.825 22.124l.037.02h.02l.009.008h.028l.02-.009h.018l.009-.01h.009l.02-.01.009-.009.009-.01.009-.01.009-.009.009-.019.009-.009.009-.01v-.02l.009-.009M10.964 18.168l.009.01v.018l.009.01v.019l.009.01.009.01.009.009.009.01.018.01.009.009.009.01h.02l.008.01h.029l.02.01.017-.01h.029l.009-.01h.018M17.575 16.115a11.172 11.172 0 002.14-3.413M12.273 13.453l-.038.066v.084l.066.104.028.009M16.341 15.666a11.01 11.01 0 00-1.319-3.799M14.994 17.23a11.12 11.12 0 00-3.785 1.053M15.022 11.868l-.037-.036-.038-.028-.094-.02-.028.01" fill="none" stroke="#1c1c19" stroke-width=".105" stroke-linecap="round" stroke-linejoin="round" stroke-miterlimit="9.857"/><path d="M5.904 25.583h21.192M27.096 7.613h-9.054" fill="none" stroke="#1c1c19" stroke-width=".105" stroke-linecap="round" stroke-linejoin="round" stroke-miterlimit="10"/><path d="M14.957 7.613H5.904v17.97" fill="none" stroke="#000" stroke-width=".105" stroke-linecap="round" stroke-linejoin="round" stroke-miterlimit="10"/><path d="M8.289 8.672v15.852M24.71 8.672v15.852M8.289 24.524H24.71" fill="none" stroke="#1c1c19" stroke-width=".105" stroke-linecap="round" stroke-linejoin="round" stroke-miterlimit="10"/><path d="M16.893 18.637a11.355 11.355 0 001.873 3.459M11.262 15.131l-.122.328-.168.666-.084.675-.01.6.01.084v.085l.01.084.008.084.01.094.01.084.009.085.02.084.008.084M20.334 21.29l.186-.178.058-.066.064-.056.17-.197.045-.065.112-.132.047-.075.056-.066.046-.074.046-.066.048-.075.046-.075.047-.066.037-.075.047-.074.037-.076.047-.074.037-.076.037-.075.038-.084.038-.076.036-.074.029-.084.037-.076.029-.084.028-.075.028-.084.028-.085.029-.075.02-.084.028-.084M14.825 11.794l-.402.14-.626.29-.14.095-.225.132-.066.046-.074.046-.066.048-.075.056-.066.047-.131.112-.075.047-.055.057-.066.056-.066.066-.064.056-.058.056-.064.066-.056.056-.066.065-.055.057-.056.065M19.65 12.507l-.289-.188-.374-.197-.234-.112-.084-.028-.075-.038-.084-.028-.074-.038-.084-.028-.076-.028-.083-.018-.169-.057-.075-.02-.084-.017-.084-.02-.168-.037-.084-.02-.084-.017-.084-.01-.083-.01-.086-.019-.084-.009-.084-.01h-.084l-.094-.01-.083-.009M11.636 20.006l.281.431.318.413.29.308.066.057.055.066.066.056.065.056.197.168.064.048.066.056.066.047.074.056.066.047.076.047.064.047.075.047.075.046.075.048.074.038.076.036M15.676 22.753l.346.037.683.019.6-.056.495-.094.084-.029.084-.018.084-.02.084-.027.075-.029.168-.056.074-.028.084-.028.076-.028.084-.038M16.77 15.684a11.027 11.027 0 00-.172-3.938M22.1 16.734l-.045-.431-.122-.581-.215-.657-.075-.15-.028-.084-.038-.075-.037-.076-.037-.074-.038-.084-.046-.076-.038-.075-.046-.065-.047-.075-.037-.076-.047-.074-.046-.066-.056-.075-.047-.065M15.508 16.03a10.958 10.958 0 00-3.176-2.316M16.761 11.541l-.055.01-.01.01h-.017l-.056.046-.01.02v.008l-.01.02-.01.009v.085M15.602 18.394a11.286 11.286 0 00-1.53 3.619M15.069 17.663a11.023 11.023 0 00-3.393 2.132" fill="none" stroke="#1c1c19" stroke-width=".105" stroke-linecap="round" stroke-linejoin="round" stroke-miterlimit="9.857"/><path d="M16.1 7.613h.773l-.018-.084-.131-.094-.029-.188-.12-.112h-.133l-.13.104-.037.196-.174.178" fill="#fff" stroke="#1c1c19" stroke-width=".105" stroke-miterlimit="10"/><path d="M16.275 7.435l-.02.018-.028.01-.14.122-.055.085-.01.028-.008.018-.02.056-.01.02-.008.028v.028l-.01.028v.074l.01.029v.047l.009.028.009.028.009.028.009.019.009.028.009.018.018.028.01.02.038.038.009.028.037.036.028.01.02.019.018.02.028.008.018.01.028.018.02.01.028.01.029.01h.018l.028.01h.055l.02.01h.028l.029-.01h.055l.018-.01h.029l.028-.01.028-.01.02-.01.028-.018.018-.01.029-.009.037-.038.018-.01.02-.018.018-.018.018-.028.038-.038.009-.02.018-.028.009-.018.009-.028.009-.018.01-.029.009-.028v-.028l.009-.02v-.055l.009-.029-.009-.028v-.046l-.009-.028v-.028l-.009-.02-.02-.056-.009-.018-.009-.028-.018-.02-.009-.028-.018-.018-.02-.019-.008-.019-.02-.018-.018-.019-.028-.02-.018-.017-.02-.01-.018-.019-.028-.01-.02-.018" fill="none" stroke="#1c1c19" stroke-width=".105" stroke-linecap="round" stroke-linejoin="round" stroke-miterlimit="10"/><path d="M11.674 19.8l-.047.056v.018l-.009.01v.075l.01.01v.018l.008.01v.01" fill="none" stroke="#1c1c19" stroke-width=".105" stroke-linecap="round" stroke-linejoin="round" stroke-miterlimit="9.857"/><path d="M16.723 7.35l-.028-.103-.046-.066-.075-.046-.121-.01-.01.01h-.019l-.02.01-.008.009-.02.01-.009.01-.02.009-.009.01-.009.018-.009.01-.009.018-.009.01-.009.019-.01.01v.037l-.009.019v.02M16.723 7.35v.085" fill="none" stroke="#1c1c19" stroke-width=".105" stroke-linecap="round" stroke-linejoin="round" stroke-miterlimit="10"/><path d="M10.586 17.168c0 3.276 2.649 5.932 5.917 5.932s5.917-2.656 5.917-5.932c0-3.276-2.649-5.93-5.917-5.93s-5.917 2.654-5.917 5.93M15.986 18.6a11.262 11.262 0 00-.444 3.99" fill="none" stroke="#1c1c19" stroke-width=".105" stroke-linecap="round" stroke-linejoin="round" stroke-miterlimit="9.857"/><path d="M15.536 22.593v.02l.01.008v.02l.063.084.02.009h.01l.017.01h.01l.008.01M18.697 22.358l.01-.009h.017l.056-.066v-.019l.01-.009v-.02l.008-.009v-.047l-.009-.018v-.01l-.009-.019v-.01l-.01-.009-.01-.02M17.285 18.458a11.342 11.342 0 002.847 2.843M21.914 18.684l.01-.056-.01-.048-.075-.084-.028-.018h-.028l-.018-.01h-.01M17.828 16.463a11.202 11.202 0 002.964-2.601M17.884 17.775c1.282.463 2.572.694 3.872.692M17.996 17.353a11.122 11.122 0 003.993-.452M20.128 21.309l.075.028h.047l.009-.01h.02l.008-.01h.02l.01-.01.008-.01.01-.008" fill="none" stroke="#1c1c19" stroke-width=".105" stroke-linecap="round" stroke-linejoin="round" stroke-miterlimit="9.857"/><path d="M21.98 16.903h.018l.056-.037.038-.048V16.8l.009-.01v-.057M21.054 13.875l-.037-.048h-.02l-.038-.018h-.018l-.009-.01h-.028l-.018.01h-.018l-.009.01h-.01l-.018.01-.01.01-.008.01-.02.01-.009.008" fill="none" stroke="#1c1c19" stroke-width=".105" stroke-linecap="round" stroke-linejoin="round" stroke-miterlimit="9.857"/><path d="M14.957 8.672V6.9h3.085" fill="none" stroke="#1c1c19" stroke-width=".105" stroke-linecap="round" stroke-linejoin="round" stroke-miterlimit="10"/><path d="M14.993 17.168c0 .836.676 1.514 1.51 1.514s1.51-.678 1.51-1.514-.676-1.513-1.51-1.513-1.51.677-1.51 1.513" fill="#f9fbfd" stroke="#1c1c19" stroke-width=".105" stroke-linecap="round" stroke-linejoin="round" stroke-miterlimit="9.857"/><path d="M15.178 17.168c0 .734.593 1.328 1.325 1.328s1.325-.594 1.325-1.328c0-.733-.593-1.328-1.325-1.328s-1.325.595-1.325 1.328" fill="none" stroke="#1c1c19" stroke-width=".105" stroke-linecap="round" stroke-linejoin="round" stroke-miterlimit="9.857"/><path d="M18.042 6.9v1.772M8.289 8.672H24.71M16.275 7.35v.085" fill="none" stroke="#1c1c19" stroke-width=".105" stroke-linecap="round" stroke-linejoin="round" stroke-miterlimit="10"/><path d="M20.521 23.72a.398.398 0 10.796.002.398.398 0 00-.796-.003M11.69 23.72a.398.398 0 10.796.001.398.398 0 00-.797-.002M16.106 9.466a.398.398 0 10.796.003.398.398 0 00-.796-.003M25.244 7.613v17.97M7.755 7.613v17.97" fill="none" stroke="#1c1c19" stroke-width=".08" stroke-linecap="round" stroke-linejoin="round" stroke-miterlimit="9.943"/><path d="M16.873 7.613H16.1" fill="none" stroke="#1c1c19" stroke-width=".105" stroke-linecap="round" stroke-linejoin="round" stroke-miterlimit="10"/><path d="M16.048 23.031a5.837 5.837 0 01-2.833-1.003 5.871 5.871 0 01-2.466-3.742 4.844 4.844 0 01-.095-.978c-.013-.623.031-1.043.167-1.581a5.828 5.828 0 011.548-2.717c.937-.937 2.081-1.498 3.423-1.678a6.49 6.49 0 011.554.018 5.806 5.806 0 012.86 1.26c.245.2.674.634.873.884a5.835 5.835 0 011.23 2.816c.029.187.037.328.043.74.01.653-.023.999-.145 1.498a5.887 5.887 0 01-4.687 4.41 6.981 6.981 0 01-1.472.073zm1.034-.206a5.35 5.35 0 001.306-.294c.417-.147.455-.174.455-.332 0-.085-.004-.092-.208-.367a10.88 10.88 0 01-1.347-2.325c-.147-.34-.327-.826-.311-.84.008-.006.077-.036.153-.067l.14-.056.055.065c.03.036.138.174.24.307.668.869 1.461 1.644 2.344 2.288.337.246.36.243.663-.07.418-.43.804-.99 1.051-1.52.187-.403.341-.842.344-.978.001-.082-.003-.092-.065-.15l-.066-.062-.459-.02a10.388 10.388 0 01-1.279-.119 10.721 10.721 0 01-1.532-.346c-.44-.134-.6-.192-.594-.218.039-.159.078-.289.09-.297.008-.005.231-.006.497-.002a11.101 11.101 0 003.236-.412c.374-.106.38-.114.339-.489a6.048 6.048 0 00-.63-2.03c-.186-.352-.42-.691-.496-.72a.214.214 0 00-.2.02c-.029.021-.136.138-.238.261a18.415 18.415 0 01-1.325 1.328c-.424.352-1.31.987-1.378.987-.013 0-.032-.016-.043-.037-.01-.02-.053-.08-.093-.13l-.073-.095.18-.212a11.325 11.325 0 001.773-2.807c.222-.502.22-.528-.063-.71a6.26 6.26 0 00-1.02-.515c-.398-.162-1.073-.317-1.555-.356-.235-.02-.294-.013-.352.04-.086.077-.088.11-.026.417.128.636.183 1.093.208 1.726.02.52 0 1.298-.044 1.67a7.482 7.482 0 00-.024.228c0 .015-.046.02-.174.02-.166 0-.173-.001-.18-.037a11.228 11.228 0 00-1.139-3.417c-.163-.306-.231-.391-.326-.41-.084-.015-.408.098-.793.276a5.49 5.49 0 00-1.631 1.136c-.245.24-.305.32-.305.402 0 .118.048.16.372.328.993.515 1.775 1.082 2.687 1.95l.19.18-.112.134-.11.133-.435-.22a10.667 10.667 0 00-1.926-.776c-.525-.151-1.132-.284-1.38-.302-.124-.009-.125-.009-.185.047-.08.074-.165.303-.275.736-.125.493-.17.855-.172 1.412-.001.437.016.678.066.924.03.15.044.177.111.218.08.049.16.04.305-.032.56-.28 1.436-.583 2.198-.762.405-.095 1.224-.233 1.384-.233.035 0 .04.013.07.168l.033.168-.083.036c-.046.02-.158.07-.25.109-.293.126-.917.45-1.223.634-.643.387-1.342.907-1.749 1.3-.127.123-.128.125-.128.208 0 .08.01.1.168.34.39.592.762.997 1.312 1.428.217.17.557.392.713.466.115.055.129.058.188.04.082-.024.143-.097.173-.205l.109-.4a11.39 11.39 0 011.38-3.114c.003-.004.282.139.303.155.003.002-.02.1-.053.216-.3 1.096-.439 2.297-.391 3.394.02.444.027.476.128.535.122.072.99.103 1.477.054z" fill="#1c1c19" stroke="#1c1c19" stroke-width=".105" stroke-miterlimit="9.857"/><path d="M2.353 25.043V8.213M1.743 25.58h3.661M1.744 7.613h3.66" fill="none" stroke="#0084d5" stroke-width=".172" stroke-miterlimit="22.926"/><path d="M1.62 9.344l.733-1.13.734 1.13M3.087 23.912l-.734 1.131-.733-1.13" fill="none" stroke="#0084d5" stroke-width=".305" stroke-miterlimit="22.926"/><path d="M6.44 4.062h20.056M5.904 3.452v3.661m21.192-3.66v3.66" fill="none" stroke="#0084d5" stroke-width=".172" stroke-miterlimit="22.926"/><path d="M25.365 3.329l1.13.733-1.13.734M7.572 4.796L6.44 4.062l1.13-.733" fill="none" stroke="#0084d5" stroke-width=".305" stroke-miterlimit="22.926"/><g style="line-height:1;-inkscape-font-specification:Roboto;font-variant-ligatures:normal;font-variant-caps:normal;font-variant-numeric:normal;font-feature-settings:normal;text-align:start" aria-label="240" font-weight="400" font-size="1.621" font-family="Roboto" letter-spacing="0" word-spacing="0" fill="#0084d5" stroke-width=".094"><path style="-inkscape-font-specification:Roboto" d="M15.995 3.46h-.756v-.104l.4-.444q.088-.1.121-.163.034-.063.034-.13 0-.09-.054-.148-.055-.058-.146-.058-.11 0-.17.062-.06.062-.06.173h-.147q0-.16.102-.257.103-.099.275-.099.16 0 .254.085.093.084.093.224 0 .17-.216.405l-.31.335h.58zM16.768 3.074h.16v.12h-.16v.267h-.147v-.268h-.525v-.086l.516-.799h.156zm-.506 0h.359v-.565l-.018.031zM17.783 2.97q0 .257-.088.382t-.275.125q-.184 0-.273-.122-.088-.123-.092-.366v-.195q0-.255.088-.378.088-.124.276-.124.186 0 .274.12.087.119.09.367zm-.147-.201q0-.186-.052-.27-.052-.086-.165-.086-.113 0-.164.084-.052.085-.053.26v.235q0 .187.054.276.054.09.164.09.109 0 .161-.085.053-.084.055-.264z"/></g><g style="line-height:1;-inkscape-font-specification:Roboto;font-variant-ligatures:normal;font-variant-caps:normal;font-variant-numeric:normal;font-feature-settings:normal;text-align:start" aria-label="203" font-weight="400" font-size="1.621" font-family="Roboto" letter-spacing="0" word-spacing="0" fill="#0084d5" stroke-width=".094"><path style="-inkscape-font-specification:Roboto" d="M1.752 17.097v.755h-.106l-.443-.399q-.1-.088-.163-.121-.063-.034-.13-.034-.09 0-.149.054-.057.055-.057.146 0 .11.062.17.062.06.173.06v.147q-.16 0-.258-.102-.098-.103-.098-.275 0-.16.085-.254.084-.094.224-.094.17 0 .405.217l.335.309v-.579zM1.26 16.22q.257 0 .382.087.125.088.125.275 0 .184-.121.273-.123.089-.366.092h-.196q-.254 0-.377-.088-.124-.088-.124-.276 0-.186.12-.273.118-.088.367-.09zm-.2.146q-.186 0-.271.052-.085.052-.085.165 0 .113.084.164.085.052.26.053h.235q.187 0 .276-.054.089-.054.089-.164 0-.109-.084-.16-.084-.054-.264-.056zM1.104 15.819v-.11q-.002-.104-.055-.163-.053-.06-.143-.06-.202 0-.202.202 0 .095.054.152.054.056.143.056v.147q-.137 0-.227-.1t-.09-.255q0-.163.085-.256.087-.092.24-.092.076 0 .146.049.07.048.105.132.03-.095.1-.146.07-.053.17-.053.155 0 .246.102.091.101.091.263 0 .163-.087.265-.088.101-.232.101v-.147q.09 0 .145-.06.055-.059.055-.159 0-.106-.055-.162-.056-.056-.16-.056-.1 0-.154.062-.054.061-.055.178v.11z"/></g></svg>
