<svg xmlns="http://www.w3.org/2000/svg" width="33mm" height="28mm" viewBox="0 0 33 28"><path d="M13.892 11.408c-.104 0-.187-.012-.187-.12v-.278c0-.082.083-.1.187-.1" fill="#f9fbfd" stroke="#1c1c19" stroke-width=".08" stroke-miterlimit="10.309"/><path d="M17.38 7.613h1.59v17.97h-1.59z" fill="#f9fbfd"/><path d="M13.938 8.672h3.442v15.852h-3.442z" fill="#f9fbfd"/><path d="M13.938 8.672h3.442M17.38 25.584h1.59M18.97 7.613v17.97M17.38 7.613v17.97M17.38 24.524h-3.442M13.938 8.672V6.9" fill="none" stroke="#1c1c19" stroke-width=".105" stroke-linecap="round" stroke-linejoin="round" stroke-miterlimit="10"/><path d="M17.829 7.613v17.97" fill="none" stroke="#1c1c19" stroke-width=".08" stroke-linecap="round" stroke-linejoin="round" stroke-miterlimit="10"/><path d="M13.938 24.524V8.672M17.38 7.613h1.59" fill="none" stroke="#1c1c19" stroke-width=".105" stroke-linecap="round" stroke-linejoin="round" stroke-miterlimit="10"/><path d="M10.387 23.904V9.272M9.778 24.524h3.66M9.778 8.672h3.66" fill="none" stroke="#0084d5" stroke-width=".172" stroke-miterlimit="22.926"/><text style="line-height:1;-inkscape-font-specification:Orkney;font-variant-ligatures:normal;font-variant-caps:normal;font-variant-numeric:normal;font-feature-settings:normal;text-align:start" x="-197.418" y="61.663" transform="rotate(-90 -115.655 -63.885)" font-weight="400" font-size="1.621" font-family="Orkney" letter-spacing="0" word-spacing="0" fill="#0084d5" stroke-width=".094"><tspan x="-197.418" y="61.663" style="-inkscape-font-specification:Orkney">179</tspan></text><path d="M9.654 10.403l.733-1.131.734 1.13M11.12 22.773l-.733 1.13-.733-1.13" fill="none" stroke="#0084d5" stroke-width=".305" stroke-miterlimit="22.926"/><path d="M14.475 3.35h3.968M13.938 2.74V6.4" fill="none" stroke="#0084d5" stroke-width=".172" stroke-miterlimit="22.926"/><text y="182.394" x="67.954" style="line-height:1;-inkscape-font-specification:Orkney;font-variant-ligatures:normal;font-variant-caps:normal;font-variant-numeric:normal;font-feature-settings:normal;text-align:start" font-weight="400" font-size="1.621" font-family="Orkney" letter-spacing="0" word-spacing="0" fill="#0084d5" stroke-width=".094" transform="translate(-52.492 -179.54)"><tspan style="-inkscape-font-specification:Orkney" y="182.394" x="67.954">57</tspan></text><path d="M17.688 2.84l.778.51-.778.51M15.16 3.813l-.707-.463.706-.464M18.97 2.74v4.373" fill="none" stroke="#0084d5" stroke-width=".172" stroke-miterlimit="22.926"/><g transform="translate(-52.492 -179.415)" fill="#f9fbfd" stroke="#1c1c19" stroke-width=".08" stroke-miterlimit="10.309"><rect width=".666" height=".599" x="65.34" y="188.694" ry=".061"/><rect width=".425" height=".412" x="66.006" y="188.787" ry="0"/></g><g transform="translate(-52.492 -165.375)" fill="#f9fbfd" stroke="#1c1c19" stroke-width=".08" stroke-miterlimit="10.309"><rect width=".666" height=".599" x="65.34" y="188.694" ry=".061"/><rect width=".425" height=".412" x="66.006" y="188.787" ry="0"/></g><path d="M13.892 22.287c-.104 0-.187-.013-.187-.12v-.279c0-.082.083-.1.187-.1" fill="#f9fbfd" stroke="#1c1c19" stroke-width=".08" stroke-miterlimit="10.309"/></svg>