<svg xmlns="http://www.w3.org/2000/svg" width="33mm" height="28mm" viewBox="0 0 33 28"><path d="M14.958 6.9h3.085v.713h-3.085z" fill="#f9fbfd" stroke="#1c1c19" stroke-width=".105" stroke-linecap="square" stroke-linejoin="round" stroke-miterlimit="10"/><path d="M16.093 7.613h.772l-.018-.083-.132-.095-.028-.188-.12-.112h-.133l-.13.105-.037.195-.174.178" fill="#fff" stroke="#1c1c19" stroke-width=".105" stroke-miterlimit="10"/><path d="M5.904 7.613h21.192v17.97H5.904z" fill="#f9fbfd"/><path d="M5.904 7.613h21.192M5.904 7.613v17.97" fill="none" stroke="#1c1c19" stroke-width=".105" stroke-linecap="round" stroke-linejoin="round" stroke-miterlimit="10"/><path d="M9.085 8.87h14.831M25.245 7.613v17.97" fill="none" stroke="#1c1c19" stroke-width=".08" stroke-linecap="round" stroke-linejoin="round" stroke-miterlimit="10"/><path d="M14.958 7.613v-.712" fill="none" stroke="#1c1c19" stroke-width=".105" stroke-linecap="round" stroke-linejoin="round" stroke-miterlimit="10"/><path d="M7.756 7.613v17.97" fill="none" stroke="#1c1c19" stroke-width=".08" stroke-linecap="round" stroke-linejoin="round" stroke-miterlimit="10"/><path d="M27.096 7.613v17.97M14.958 6.9h3.085v.713M16.715 7.351v.084M5.904 25.584h21.192M16.275 7.435l-.018.019-.046.018-.131.122-.009.02M16.93 7.613l-.037-.037-.064-.076-.114-.065M16.275 7.351v.084" fill="none" stroke="#1c1c19" stroke-width=".105" stroke-linecap="round" stroke-linejoin="round" stroke-miterlimit="10"/><path d="M16.715 7.351v-.056l-.056-.104-.084-.056-.121-.01-.009.01h-.02l-.018.01-.018.009-.01.01-.018.01-.01.009-.01.01-.008.018-.02.01-.008.019v.01l-.01.018-.009.01v.02l-.01.018v.037" fill="none" stroke="#1c1c19" stroke-width=".105" stroke-linecap="round" stroke-linejoin="round" stroke-miterlimit="10"/><path d="M9.085 9.985h14.831M9.085 10.304h14.831M9.085 11.42h14.831M9.085 11.738h14.831M9.085 12.854h14.831M23.916 12.854v-1.116M23.916 11.42v-1.116M23.916 9.985V8.87M9.085 12.854v-1.116M9.085 11.42v-1.116M9.085 9.985V8.87M9.085 13.172h14.831M9.085 14.288h14.831M23.916 14.288v-1.116M9.085 14.288v-1.116M9.085 14.606h14.831M9.085 15.722h14.831M23.916 15.722v-1.116M9.085 15.722v-1.116M9.085 16.03h14.831M9.085 17.156h14.831M23.916 17.156v-1.125M9.085 17.156v-1.125M9.085 17.465h14.831M9.085 18.59h14.831M23.916 18.59v-1.125M9.085 18.59v-1.125M9.085 18.9h14.831M9.085 20.025h14.831M23.916 20.025v-1.126M9.085 20.025v-1.126M9.085 20.334h14.831M9.085 21.459h14.831M23.916 21.459v-1.125M9.085 21.459v-1.125M9.085 21.768h14.831M9.085 22.893h14.831M23.916 22.893v-1.125M9.085 22.893v-1.125M9.085 23.202h14.831M9.085 24.327h14.831M23.916 24.327v-1.125M9.085 24.327v-1.125" fill="none" stroke="#1c1c19" stroke-width=".08" stroke-linecap="round" stroke-linejoin="round" stroke-miterlimit="10"/><g fill="#0084d5" fill-rule="evenodd"><path d="M21.034 25.268l.228-.65.122.36.122-.36.23.65h-.107l-.124-.318-.121.318-.122-.318-.121.318zM22.338 25.268v-.65h.167c.167 0 .215.17.144.237.23.07.13.424-.149.412zm.107-.107v-.436h.046c.072 0 .093.09.016.153.216.04.205.277.002.282h-.064z"/><path d="M22.714 25.268l.265-.65.26.65h-.11l-.058-.14h-.185l-.057.14zm.216-.248l.049-.116.05.116zM23.41 25.267v-.649h.174c.17 0 .205.193.134.236.158.034.207.261.207.413h-.107c0-.247-.077-.354-.237-.392.078-.061.05-.15-.013-.15h-.05v.542h-.108zM23.871 24.647h-.011v.02h.01c.007 0 .012 0 .014-.002a.008.008 0 00.004-.008c0-.004-.001-.006-.004-.008l-.013-.002zm.001-.008c.01 0 .015.002.02.004a.015.015 0 01.006.013.015.015 0 01-.004.011.02.02 0 01-.01.006l.014.03h-.011l-.013-.029h-.014v.029h-.01v-.064zm.046.033a.048.048 0 00-.014-.034.047.047 0 00-.034-.014.05.05 0 00-.034.013.051.051 0 00-.014.035c0 .006.002.012.004.018a.042.042 0 00.01.016.048.048 0 00.068 0 .043.043 0 00.01-.015.052.052 0 00.004-.019zm-.047-.054a.053.053 0 01.05.033.046.046 0 01.003.02.054.054 0 01-.016.039.052.052 0 01-.017.011.053.053 0 01-.02.005.06.06 0 01-.021-.004.056.056 0 01-.034-.05.05.05 0 01.004-.02.058.058 0 01.012-.018.048.048 0 01.018-.012.045.045 0 01.02-.004zM21.88 24.637a.316.316 0 01.22 0zM21.794 24.683a.29.29 0 01.035-.022h.321a.21.21 0 01.034.022zM21.745 24.731a.183.183 0 01.022-.024h.446c.009.008.016.017.022.024zM21.71 24.777c.004-.008.009-.015.015-.023h.529l.014.023zM21.687 24.825l.01-.024h.585a.158.158 0 01.01.024zM21.672 24.87a.101.101 0 01.007-.022h.62c.004.007.005.015.007.023zM21.666 24.918l.002-.024h.643c0 .009.002.016.003.024zM21.665 24.943h.65a.325.325 0 11-.65 0M23.252 24.618h.107v.65h-.107z"/></g><path d="M6.44 4.063h20.056M5.904 3.453v3.66m21.192-3.66v3.66M2.353 25.044V8.214M1.743 25.58h3.661M1.744 7.613h3.66" fill="none" stroke="#0084d5" stroke-width=".172" stroke-miterlimit="22.926"/><text y="175.131" x="28.273" style="line-height:1;-inkscape-font-specification:Orkney;font-variant-ligatures:normal;font-variant-caps:normal;font-variant-numeric:normal;font-feature-settings:normal;text-align:start" font-weight="400" font-size="1.621" font-family="Orkney" letter-spacing="0" word-spacing="0" fill="#0084d5" stroke-width=".094" transform="translate(-13.305 -171.564)"><tspan style="-inkscape-font-specification:Orkney" y="175.131" x="28.273">240</tspan></text><text transform="rotate(-90 -92.435 -79.129)" y="15.164" x="-189.687" style="line-height:1;-inkscape-font-specification:Orkney;font-variant-ligatures:normal;font-variant-caps:normal;font-variant-numeric:normal;font-feature-settings:normal;text-align:start" font-weight="400" font-size="1.621" font-family="Orkney" letter-spacing="0" word-spacing="0" fill="#0084d5" stroke-width=".094"><tspan style="-inkscape-font-specification:Orkney" y="15.164" x="-189.687">203</tspan></text><path d="M25.365 3.33l1.13.733-1.13.733M7.572 4.796L6.44 4.063l1.13-.734M1.62 9.345l.733-1.132.734 1.132M3.087 23.913l-.734 1.13-.733-1.13" fill="none" stroke="#0084d5" stroke-width=".305" stroke-miterlimit="22.926"/><path fill="#1c1c19" d="M9.085 9.656h14.832v.328H9.085zM9.085 11.091h14.832v.328H9.085zM9.085 12.525h14.832v.328H9.085zM9.085 13.96h14.832v.327H9.085zM9.085 15.393h14.832v.328H9.085zM9.085 16.828h14.832v.328H9.085zM9.085 18.262h14.832v.328H9.085zM9.085 19.696h14.832v.328H9.085zM9.085 21.13h14.832v.328H9.085zM9.085 22.564h14.832v.328H9.085zM9.085 24h14.832v.327H9.085z"/></svg>