<svg xmlns="http://www.w3.org/2000/svg" viewBox="0 0 33 28"><path d="M13.892 11.408c-.104 0-.187-.012-.187-.12v-.278c0-.082.083-.1.187-.1" fill="#f9fbfd" stroke="#1c1c19" stroke-width=".08" stroke-miterlimit="10.309"/><path d="M17.38 7.613h1.59v17.97h-1.59z" fill="#f9fbfd"/><path d="M13.938 8.672h3.442v15.852h-3.442z" fill="#f9fbfd"/><path d="M13.938 8.672h3.442M17.38 25.584h1.59M18.97 7.613v17.97M17.38 7.613v17.97M17.38 24.524h-3.442M13.938 8.672V6.9" fill="none" stroke="#1c1c19" stroke-width=".105" stroke-linecap="round" stroke-linejoin="round" stroke-miterlimit="10"/><path d="M17.829 7.613v17.97" fill="none" stroke="#1c1c19" stroke-width=".08" stroke-linecap="round" stroke-linejoin="round" stroke-miterlimit="10"/><path d="M13.938 24.524V8.672M17.38 7.613h1.59" fill="none" stroke="#1c1c19" stroke-width=".105" stroke-linecap="round" stroke-linejoin="round" stroke-miterlimit="10"/><path d="M10.387 23.904V9.272M9.778 24.524h3.66M9.778 8.672h3.66" fill="none" stroke="#0084d5" stroke-width=".172" stroke-miterlimit="22.926"/><g style="line-height:1;-inkscape-font-specification:Roboto;font-variant-ligatures:normal;font-variant-caps:normal;font-variant-numeric:normal;font-feature-settings:normal;text-align:start" aria-label="179" font-weight="400" font-size="1.621" font-family="Roboto" letter-spacing="0" word-spacing="0" fill="#0084d5" stroke-width=".094"><path style="-inkscape-font-specification:Roboto" d="M9.8 17.4v.148h-.975l.108.295H8.8l-.157-.42v-.022zM8.73 16.227l1.07.478v.153l-1.031-.475v.623h-.12v-.779zM9.294 15.5q.055.046.088.11.033.063.033.14 0 .099-.049.173-.049.074-.138.114-.089.04-.197.04-.115 0-.208-.043-.092-.044-.142-.125-.049-.08-.049-.188 0-.171.129-.27.127-.098.348-.098h.043q.336 0 .491.133.155.133.159.401v.029h-.124v-.031q-.003-.182-.094-.279-.092-.097-.29-.106zm0 .226q0-.074-.045-.136-.045-.062-.112-.09H9.08q-.144 0-.234.062-.09.062-.09.158 0 .097.074.155.073.059.194.059.118 0 .195-.056.076-.057.076-.152z"/></g><path d="M9.654 10.403l.733-1.131.734 1.13M11.12 22.773l-.733 1.13-.733-1.13" fill="none" stroke="#0084d5" stroke-width=".305" stroke-miterlimit="22.926"/><path d="M14.475 3.35h3.968M13.938 2.74V6.4" fill="none" stroke="#0084d5" stroke-width=".172" stroke-miterlimit="22.926"/><g style="line-height:1;-inkscape-font-specification:Roboto;font-variant-ligatures:normal;font-variant-caps:normal;font-variant-numeric:normal;font-feature-settings:normal;text-align:start" aria-label="57" font-weight="400" font-size="1.621" font-family="Roboto" letter-spacing="0" word-spacing="0" fill="#0084d5" stroke-width=".094"><path style="-inkscape-font-specification:Roboto" d="M15.727 2.17l.059-.575h.59v.136h-.466l-.035.314q.085-.05.192-.05.158 0 .25.105.093.103.093.28 0 .179-.096.282-.096.102-.269.102-.153 0-.25-.085-.096-.085-.11-.234h.14q.013.099.07.15.057.05.15.05.102 0 .16-.07.059-.07.059-.193 0-.115-.064-.185-.062-.07-.167-.07-.095 0-.15.042l-.039.031zM17.314 1.678l-.477 1.07h-.154l.476-1.032h-.624v-.12h.78z"/></g><path d="M17.688 2.84l.778.51-.778.51M15.16 3.813l-.707-.463.706-.464M18.97 2.74v4.373" fill="none" stroke="#0084d5" stroke-width=".172" stroke-miterlimit="22.926"/><g transform="translate(-52.492 -179.415)" fill="#f9fbfd" stroke="#1c1c19" stroke-width=".08" stroke-miterlimit="10.309"><rect ry=".061" y="188.694" x="65.34" height=".599" width=".666"/><rect ry="0" y="188.787" x="66.006" height=".412" width=".425"/></g><g transform="translate(-52.492 -165.375)" fill="#f9fbfd" stroke="#1c1c19" stroke-width=".08" stroke-miterlimit="10.309"><rect ry=".061" y="188.694" x="65.34" height=".599" width=".666"/><rect ry="0" y="188.787" x="66.006" height=".412" width=".425"/></g><path d="M13.892 22.287c-.104 0-.187-.013-.187-.12v-.279c0-.082.083-.1.187-.1" fill="#f9fbfd" stroke="#1c1c19" stroke-width=".08" stroke-miterlimit="10.309"/></svg>
