<?xml version="1.0" standalone="no"?>
<!DOCTYPE svg PUBLIC "-//W3C//DTD SVG 20010904//EN"
 "http://www.w3.org/TR/2001/REC-SVG-20010904/DTD/svg10.dtd">
<svg version="1.0" xmlns="http://www.w3.org/2000/svg"
 width="260.000000pt" height="260.000000pt" viewBox="0 0 260.000000 260.000000"
 preserveAspectRatio="xMidYMid meet">
<metadata>
Created by potrace 1.11, written by Peter Selinger 2001-2013
</metadata>
<g transform="translate(0.000000,260.000000) scale(0.100000,-0.100000)"
fill="#000000" stroke="none">
<path d="M1145 2593 c-63 -9 -202 -43 -235 -57 -31 -13 10 -14 395 -14 l430 1
-60 19 c-32 10 -73 21 -90 24 -16 3 -50 10 -75 15 -47 11 -313 20 -365 12z"/>
<path d="M592 2387 c-35 -22 -61 -41 -59 -43 5 -6 1528 -6 1533 -1 3 2 -22 22
-53 43 l-58 39 -650 1 -651 1 -62 -40z"/>
<path d="M505 2242 c-106 -3 -119 -9 -165 -72 l-18 -25 974 0 c672 0 974 3
974 10 0 6 -17 28 -38 48 l-38 37 -795 3 c-437 1 -839 1 -894 -1z"/>
<path d="M249 2052 c-14 -3 -59 -64 -59 -80 0 -4 499 -8 1110 -8 611 0 1110 2
1110 6 0 13 -52 80 -63 81 -35 2 -2086 4 -2098 1z"/>
<path d="M127 1857 c-3 -7 -12 -29 -21 -50 l-16 -37 1209 0 1210 1 -17 47 -18
47 -1171 2 c-911 2 -1172 0 -1176 -10z"/>
<path d="M51 1662 c-4 -9 -11 -29 -15 -44 l-6 -28 1269 0 1270 0 -13 43 -12
42 -1242 2 c-1153 1 -1243 0 -1251 -15z"/>
<path d="M21 1490 c-5 -3 -10 -24 -14 -47 -5 -41 -4 -43 21 -44 121 -4 2565
-3 2567 1 1 3 0 25 -4 49 l-6 45 -1278 0 c-704 1 -1282 -1 -1286 -4z"/>
<path d="M5 1213 c14 -226 95 -458 228 -653 46 -66 206 -238 263 -281 175
-133 390 -227 599 -263 106 -18 355 -14 455 8 289 62 557 216 721 415 24 29
49 59 55 65 82 87 209 354 238 498 3 13 9 46 15 75 6 28 13 90 16 137 l6 86
-1300 0 -1301 0 5 -87z"/>
</g>
</svg>
