<svg xmlns="http://www.w3.org/2000/svg" width="111.192" height="25" viewBox="0 0 83.394 18.75" version="1.2"><g fill="#1c9ce1" fill-rule="evenodd"><path d="M0 18.75L6.578.016 10.083 10.4 13.602.016l6.644 18.734h-3.088l-3.563-9.174-3.512 9.174-3.496-9.174-3.512 9.174zm0 0M37.615 18.75V.013h4.813c4.825 0 6.191 4.912 4.152 6.821 6.626 2.028 3.753 12.253-4.281 11.905zm3.078-3.09V3.093h1.323c2.07 0 2.7 2.623.467 4.401 6.245 1.15 5.908 7.992.054 8.155l-1.844.01zm0 0"/><path d="M48.454 18.75L56.097.013 63.6 18.75h-3.167l-1.67-4.045h-5.355l-1.637 4.045zm6.233-7.146l1.41-3.361 1.42 3.36zm0 0M68.545 18.742V.008L73.554 0c4.91.008 5.905 5.569 3.87 6.808 4.552.975 5.964 7.54 5.97 11.934h-3.096c0-7.147-2.207-10.228-6.836-11.317 2.257-1.778 1.446-4.335-.373-4.335h-1.441v15.652zm0 0M81.831.834h-.328v.578h.315c.184 0 .328-.013.396-.053a.243.243 0 00.118-.223c0-.105-.04-.184-.118-.223-.08-.053-.212-.079-.396-.079zm.04-.212c.25 0 .435.053.566.118a.43.43 0 01.184.37c0 .131-.04.236-.118.315a.556.556 0 01-.317.158l.409.868h-.316l-.37-.829h-.406v.83h-.29V.621zm1.33.947c0-.183-.04-.367-.107-.525-.066-.17-.171-.33-.302-.461a1.341 1.341 0 00-.447-.302 1.472 1.472 0 00-.54-.105c-.184 0-.355.04-.527.105-.158.052-.315.17-.447.289-.131.144-.236.29-.302.461a1.51 1.51 0 00-.105.538c0 .173.038.357.105.514.066.171.171.342.302.46.119.133.276.238.447.304a1.403 1.403 0 001.067 0c.158-.066.328-.171.447-.304.13-.118.236-.276.302-.433.065-.171.106-.355.106-.54zM81.817.005c.197 0 .394.04.58.118.197.079.367.197.512.342.144.144.264.303.33.5.092.184.131.394.131.591 0 .212-.04.422-.118.606a1.438 1.438 0 01-.343.5 1.49 1.49 0 01-.512.33 1.546 1.546 0 01-.593.117c-.21 0-.407-.039-.593-.105a1.609 1.609 0 01-.499-.341 1.67 1.67 0 01-.343-.5 1.55 1.55 0 010-1.185c.08-.183.199-.369.343-.513.145-.145.315-.263.5-.329a1.31 1.31 0 01.592-.131zm0 0M24.41.568c1.953-.737 4.143-.77 6.323 0zm0 0M21.922 1.893c.282-.217.629-.434.998-.64h9.28c.391.206.705.423.976.64zm0 0M20.492 3.269c.184-.227.38-.455.64-.683h12.86c.27.216.476.466.638.683zm0 0M19.504 4.594c.12-.217.238-.434.412-.652h15.266c.13.218.304.435.412.652zm0 0M18.834 5.97c.085-.227.205-.455.313-.684h16.85c.119.229.206.457.282.683zm0 0M18.409 7.294c.032-.217.098-.433.185-.65h17.911c.087.205.131.433.186.65zm0 0M18.215 8.67c.021-.26.054-.455.075-.693h18.542c.021.238.054.466.087.693zm0 0M18.197 9.377h18.725c0 5.172-4.185 9.368-9.356 9.368-5.162 0-9.37-4.186-9.37-9.368M63.986.003h3.068V18.74h-3.068zm0 0"/></g></svg>