<svg xmlns="http://www.w3.org/2000/svg" viewBox="0 0 427 240"><filter id="c"><feGaussianBlur stdDeviation="55" /></filter><path fill="#afa39c" d="M0 0h427v238H0z"/><g filter='url(#c)' fill-opacity='.5'><ellipse fill="#54423b" fill-opacity=".5" rx="1" ry="1" transform="matrix(54.54995 79.66819 -59.62992 40.82946 53.3 .8)"/><ellipse fill="#ded2d1" fill-opacity=".5" rx="1" ry="1" transform="rotate(-134.6 192.6 -44.1) scale(331.47905 84.53939)"/><ellipse fill="#7b6857" fill-opacity=".5" rx="1" ry="1" transform="rotate(-93.6 149.5 38.5) scale(116.00807 36.80289)"/><path fill="#361c00" fill-opacity=".5" d="M-24.6 43.8l2.6-75 68.3 2.4-2.6 75z"/><ellipse fill="#d5c8c8" fill-opacity=".5" rx="1" ry="1" transform="matrix(-43.42657 83.42166 -62.99061 -32.79084 .8 178)"/><ellipse fill="#8d8273" fill-opacity=".5" rx="1" ry="1" transform="matrix(1.89293 -28.4994 151.2581 10.04655 281.2 227.5)"/><path fill="#74694f" fill-opacity=".5" d="M256 89.2h30v53.4h-30z"/><ellipse fill="#c2b7b4" fill-opacity=".5" rx="1" ry="1" transform="rotate(-159.5 111.8 22) scale(49.85641 116.99917)"/></g></svg>