<svg xmlns="http://www.w3.org/2000/svg" viewBox="0 0 320 240"><filter id="b"><feGaussianBlur stdDeviation="12" /></filter><path fill="#d3d5d3" d="M0 0h320v240H0z"/><g filter="url(#b)" transform="matrix(1.25 0 0 1.25 .6 .6)" fill-opacity=".5"><ellipse fill="#131503" rx="1" ry="1" transform="matrix(-24.61952 27.15155 -16.10182 -14.60024 93.7 101.3)"/><ellipse fill="#8c8e85" cx="75" cy="132" rx="58" ry="29"/><path fill="#fbffff" d="M154.5 51.9L-38 75.5-48.5-9.9 144-33.5z"/><ellipse fill="#fff" rx="1" ry="1" transform="matrix(1.38942 21.45384 -254.4669 16.48013 134.5 180.6)"/><ellipse fill="#a9aaa1" rx="1" ry="1" transform="scale(38.19783 27.93355) rotate(90 .3 4.8)"/><ellipse fill="#2f3023" rx="1" ry="1" transform="matrix(-11.87684 -7.14981 13.02787 -21.64111 86 102)"/><ellipse fill="#989b92" rx="1" ry="1" transform="rotate(158.8 50.2 54) scale(20.04043 34.67508)"/><path fill="#1c1a1c" d="M205 36h12v17h-12z"/></g></svg>