<svg xmlns="http://www.w3.org/2000/svg" viewBox="0 0 320 240"><filter id="b"><feGaussianBlur stdDeviation="12" /></filter><path fill="#aaa9a9" d="M0 0h320v240H0z"/><g filter="url(#b)" transform="matrix(1.25 0 0 1.25 .6 .6)" fill-opacity=".5"><ellipse rx="1" ry="1" transform="matrix(-22.13105 43.5673 -28.41264 -14.43288 137.2 113.9)"/><ellipse rx="1" ry="1" transform="rotate(33.6 -124.4 298) scale(17.09531 49.21459)"/><path fill="#d9d8dc" d="M249 105l22-121L-16 2z"/><ellipse fill="#e3e0df" rx="1" ry="1" transform="rotate(-142.4 38.5 78.5) scale(166.40774 38.15929)"/><ellipse fill="#cfced0" rx="1" ry="1" transform="matrix(16.7831 -31.41833 86.1486 46.01903 38.4 36)"/><ellipse fill="#fff" cx="211" cy="103" rx="18" ry="20"/><path d="M160.9 127.6l9.2-43.1-68.8 61.2 26.4 15z"/><ellipse fill="#645f59" rx="1" ry="1" transform="matrix(-2.89615 3.85883 -70.04554 -52.5709 54.3 131.4)"/></g></svg>