<svg xmlns="http://www.w3.org/2000/svg" viewBox="0 0 420 300"><filter id="b"><feGaussianBlur stdDeviation="12" /></filter><path fill="#c3aaa0" d="M0 0h420v298H0z"/><g filter="url(#b)" transform="translate(.8 .8) scale(1.64063)" fill-opacity=".5"><ellipse fill="#7d0000" cx="51" cy="129" rx="35" ry="119"/><ellipse fill="#f4ffff" rx="1" ry="1" transform="matrix(-56.83709 227.055 -49.13516 -12.29966 197.8 34.8)"/><ellipse fill="#900" rx="1" ry="1" transform="matrix(6.45244 18.3227 -62.65108 22.06293 91 90.6)"/><ellipse fill="#fff" rx="1" ry="1" transform="matrix(-23.0371 131.68922 -23.96372 -4.1921 1.4 67)"/><ellipse fill="#fff" rx="1" ry="1" transform="matrix(16.97979 10.02988 -13.93688 23.59402 89.7 47)"/><path fill="#002800" d="M252.7 88.5l14.9 1.6-10.3 97.4-14.9-1.6z"/><ellipse fill="#ae0005" cx="52" cy="133" rx="35" ry="81"/><path fill="#000800" d="M62.5 9L31.3 19 31 54.4l43-30.1z"/></g></svg>