<svg xmlns="http://www.w3.org/2000/svg" viewBox="0 0 427 240"><filter id="c"><feGaussianBlur stdDeviation="55" /></filter><path fill="#bdbcbb" d="M0 0h427v238H0z"/><g filter='url(#c)' fill-opacity='.5'><path fill="#484948" fill-opacity=".5" d="M155.3 171.3l-121.8-6.9-1.2-63.7L139 166z"/><ellipse fill="#e2e0e0" fill-opacity=".5" rx="1" ry="1" transform="matrix(-6.84697 36.23657 -276.63588 -52.2709 66.2 202)"/><ellipse fill="#dadadc" fill-opacity=".5" rx="1" ry="1" transform="matrix(13.66016 50.78251 -115.8799 31.17093 127.5 45.5)"/><ellipse fill="#97938f" fill-opacity=".5" rx="1" ry="1" transform="rotate(-31.5 456.5 -541.8) scale(83.94442 33.03296)"/><ellipse fill="#888889" fill-opacity=".5" rx="1" ry="1" transform="matrix(-7.1386 -19.82268 86.96117 -31.31672 133.7 136)"/><ellipse fill="#ece9e9" fill-opacity=".5" rx="1" ry="1" transform="matrix(6.81003 -18.82614 40.94774 14.81213 198.2 179.7)"/><path fill="#454645" fill-opacity=".5" d="M41.2 96.2l-6.2 32 37.4 49.5-8.5-59.4z"/><ellipse fill="#e4e2e1" fill-opacity=".5" rx="1" ry="1" transform="matrix(-10.48566 -14.37943 54.57635 -39.79776 234.3 128.3)"/></g></svg>