<?xml version="1.0" encoding="UTF-8" standalone="no"?>
<svg
   xmlns:dc="http://purl.org/dc/elements/1.1/"
   xmlns:cc="http://creativecommons.org/ns#"
   xmlns:rdf="http://www.w3.org/1999/02/22-rdf-syntax-ns#"
   xmlns:svg="http://www.w3.org/2000/svg"
   xmlns="http://www.w3.org/2000/svg"
   xmlns:sodipodi="http://sodipodi.sourceforge.net/DTD/sodipodi-0.dtd"
   xmlns:inkscape="http://www.inkscape.org/namespaces/inkscape"
   sodipodi:docname="do-not-cover.svg"
   inkscape:version="1.0rc1 (09960d6f05, 2020-04-09)"
   id="svg35229"
   version="1.1"
   viewBox="0 0 18.212151 14.78635"
   height="14.78635mm"
   width="18.212151mm">
  <defs
     id="defs35223" />
  <sodipodi:namedview
     inkscape:window-maximized="1"
     inkscape:window-y="0"
     inkscape:window-x="0"
     inkscape:window-height="1016"
     inkscape:window-width="1920"
     fit-margin-bottom="0"
     fit-margin-right="0"
     fit-margin-left="0"
     fit-margin-top="0"
     showgrid="false"
     inkscape:document-rotation="0"
     inkscape:current-layer="layer1"
     inkscape:document-units="mm"
     inkscape:cy="34.550142"
     inkscape:cx="35.602632"
     inkscape:zoom="5.6"
     inkscape:pageshadow="2"
     inkscape:pageopacity="0.0"
     borderopacity="1.0"
     bordercolor="#666666"
     pagecolor="#ffffff"
     id="base" />
  <metadata
     id="metadata35226">
    <rdf:RDF>
      <cc:Work
         rdf:about="">
        <dc:format>image/svg+xml</dc:format>
        <dc:type
           rdf:resource="http://purl.org/dc/dcmitype/StillImage" />
        <dc:title></dc:title>
      </cc:Work>
    </rdf:RDF>
  </metadata>
  <g
     transform="translate(-94.4594,-143.04135)"
     id="layer1"
     inkscape:groupmode="layer"
     inkscape:label="Layer 1">
    <path
       inkscape:connector-curvature="0"
       id="path23100"
       d="M 96.303215,149.06475 H 100.232 v -0.58153 h -3.928785"
       style="fill:#1e1c1c;fill-opacity:1;fill-rule:evenodd;stroke:none;stroke-width:0.352777" />
    <path
       inkscape:connector-curvature="0"
       id="path23102"
       d="m 106.86312,149.06475 h 3.92879 v -0.58153 h -3.92879"
       style="fill:#1e1c1c;fill-opacity:1;fill-rule:evenodd;stroke:none;stroke-width:0.352777" />
    <path
       inkscape:connector-curvature="0"
       id="path23104"
       d="M 96.303215,147.61506 H 100.232 v -0.58153 h -3.928785"
       style="fill:#1e1c1c;fill-opacity:1;fill-rule:evenodd;stroke:none;stroke-width:0.352777" />
    <path
       inkscape:connector-curvature="0"
       id="path23106"
       d="m 106.86312,147.61506 h 3.92879 v -0.58153 h -3.92879"
       style="fill:#1e1c1c;fill-opacity:1;fill-rule:evenodd;stroke:none;stroke-width:0.352777" />
    <path
       inkscape:connector-curvature="0"
       id="path23108"
       d="m 100.232,145.62655 h -5.7726 v 12.20115 h 18.21215 v -12.20115 h -5.80843 v 0.58153 l 5.22139,-0.007 v 11.04498 H 95.039554 V 146.20809 H 100.232"
       style="fill:#1e1c1c;fill-opacity:1;fill-rule:evenodd;stroke:none;stroke-width:0.352777" />
    <path
       inkscape:connector-curvature="0"
       id="path23110"
       d="m 110.21865,156.31737 -13.233306,-13.27602 -0.410655,0.41341 13.233301,13.27602"
       style="fill:#1e1c1c;fill-opacity:1;fill-rule:evenodd;stroke:none;stroke-width:0.352777" />
    <path
       inkscape:connector-curvature="0"
       id="path23112"
       d="m 110.12356,143.04135 -13.233301,13.27602 0.410656,0.41341 13.233305,-13.27602"
       style="fill:#1e1c1c;fill-opacity:1;fill-rule:evenodd;stroke:none;stroke-width:0.352777" />
    <path
       inkscape:connector-curvature="0"
       id="path23114"
       d="m 100.49659,152.13503 -0.008,-6.96461 6.10333,-0.008 v 6.97288 h 0.58015 v -7.55442 h -7.255369 v 7.55441"
       style="fill:#1e1c1c;fill-opacity:1;fill-rule:evenodd;stroke:none;stroke-width:0.352777" />
    <path
       inkscape:connector-curvature="0"
       id="path23116"
       d="m 106.8769,150.64123 h 1.67432 v 1.66329 c 0,0.28801 -0.32246,0.83234 -0.54295,0.9729 -0.22737,0.14607 -1.68947,0.9784 -2.6293,1.50895 0,0 0,0 0,-0.0372 -0.0661,-0.31695 -0.25631,-0.60358 -0.49195,-0.83922 -0.35967,-0.35416 -0.82958,-0.5526 -1.3367,-0.5526 -0.88884,0 -1.63711,0.61874 -1.84244,1.43592 -0.96187,-0.55122 -2.459797,-1.4056 -2.636186,-1.51584 -0.169499,-0.10335 -0.544325,-0.74414 -0.544325,-0.9729 v -1.66329 h 1.682581 v -0.58291 h -2.262735 v 2.2462 c 0,0.44235 0.491959,1.26642 0.815798,1.46623 0.234267,0.14745 2.922817,1.67019 3.039957,1.73633 l 0.4327,0.25081 v -0.50023 c 0,-0.35416 0.14056,-0.68489 0.38309,-0.93569 0.24943,-0.24254 0.58016,-0.38309 0.93156,-0.38309 0.34589,0 0.67524,0.14055 0.92604,0.38309 0.24942,0.2508 0.38172,0.58153 0.38172,0.93569 v 0.50023 l 0.44097,-0.25081 c 0.11024,-0.0579 2.73127,-1.54615 3.02479,-1.73633 0.36794,-0.24391 0.81442,-0.95084 0.80753,-1.47312 0,0 0,-2.23931 0,-2.23931 0,0 -2.25447,0 -2.25447,0"
       style="fill:#1e1c1c;fill-opacity:1;fill-rule:evenodd;stroke:none;stroke-width:0.352777" />
  </g>
</svg>
